<svg xmlns="http://www.w3.org/2000/svg" viewBox="0 0 100 100">
  <rect width="100" height="100" rx="22" fill="#0064FF"/>
  <circle cx="50" cy="52" r="38" fill="none" stroke="#fff" stroke-width="2" stroke-dasharray="4 4" opacity="0.5"/>
  <path d="M14 28 l2 4 l4 2 l-4 2 l-2 4 l-2 -4 l-4 -2 l4 -2 z" fill="#fff"/>
  <path d="M86 28 l2 4 l4 2 l-4 2 l-2 4 l-2 -4 l-4 -2 l4 -2 z" fill="#fff"/>
  <path d="M84 70 l1.5 3 l3 1.5 l-3 1.5 l-1.5 3 l-1.5 -3 l-3 -1.5 l3 -1.5 z" fill="#fff"/>
  <path d="M28 40 L34 32 L38 48 Z" fill="#fff"/>
  <path d="M72 40 L66 32 L62 48 Z" fill="#fff"/>
  <circle cx="50" cy="58" r="24" fill="#fff"/>
  <circle cx="42" cy="54" r="2.4" fill="#0064FF"/>
  <circle cx="58" cy="54" r="2.4" fill="#0064FF"/>
  <ellipse cx="50" cy="66" rx="11" ry="7" fill="#0064FF" opacity="0.16"/>
  <path d="M44 64 L46 70 L48 66 L50 70 L52 66 L54 70 L56 64" stroke="#0064FF" stroke-width="1.6" stroke-linecap="round" stroke-linejoin="round" fill="none"/>
</svg>
