<?xml version="1.0" encoding="UTF-8"?>
<svg xmlns="http://www.w3.org/2000/svg" width="512" height="512" viewBox="0 0 100 100">
  <circle cx="50" cy="50" r="50" fill="#ffffff"/>
  <svg x="25" y="25" width="50" height="50" viewBox="0 0 24 24" fill="none" stroke="#0064FF" stroke-width="1.8" stroke-linecap="round" stroke-linejoin="round"><path d="M3 17.5 L3 19 C3 19.6 3.5 20 4 20 L20 20 C20.7 20 21.2 19.5 21 18.8 C20.7 18 20 17.5 19 17.3 L15.2 16.7 C14.2 16.5 13.3 16.1 12.6 15.4 L10.8 13.4 C10.4 13 9.9 12.9 9.4 13 L7 13.5 C5 14 3.5 15 3 17 Z" data-om-id="jsx:/https:/c06f08f4-323a-4401-a60f-e5939c38525d.claudeusercontent.com/v1/design/projects/c06f08f4-323a-4401-a60f-e5939c38525d/serve/category-icons.jsx:1297:42:5"></path><path d="M7 13.5 L8 9.5 C8.2 8.8 8.8 8.5 9.4 8.7 L11.5 9.3 L12.6 15.4" data-om-id="jsx:/https:/c06f08f4-323a-4401-a60f-e5939c38525d.claudeusercontent.com/v1/design/projects/c06f08f4-323a-4401-a60f-e5939c38525d/serve/category-icons.jsx:1541:44:5"></path><path d="M8.2 11.4 L10.4 12 M8.6 9.8 L10.8 10.5" stroke-width="1.4" data-om-id="jsx:/https:/c06f08f4-323a-4401-a60f-e5939c38525d.claudeusercontent.com/v1/design/projects/c06f08f4-323a-4401-a60f-e5939c38525d/serve/category-icons.jsx:1637:46:5"></path><path d="M3.5 18.5 L20 18.5" stroke-width="1.2" data-om-id="jsx:/https:/c06f08f4-323a-4401-a60f-e5939c38525d.claudeusercontent.com/v1/design/projects/c06f08f4-323a-4401-a60f-e5939c38525d/serve/category-icons.jsx:1735:48:5"></path><path d="M13 14.5 L17 16" stroke-width="1.4" data-om-id="jsx:/https:/c06f08f4-323a-4401-a60f-e5939c38525d.claudeusercontent.com/v1/design/projects/c06f08f4-323a-4401-a60f-e5939c38525d/serve/category-icons.jsx:1813:50:5"></path></svg>
</svg>